<?xml version="1.0" encoding="UTF-8" standalone="no"?>
<!-- Generator: Adobe Illustrator 25.2.1, SVG Export Plug-In . SVG Version: 6.00 Build 0)  -->

<svg
   version="1.1"
   id="Layer_1"
   x="0px"
   y="0px"
   viewBox="0 0 1493 1288.06"
   xml:space="preserve"
   sodipodi:docname="logo-v2.svg"
   width="1493"
   height="1288.0601"
   inkscape:version="1.2.2 (b0a8486541, 2022-12-01)"
   xmlns:inkscape="http://www.inkscape.org/namespaces/inkscape"
   xmlns:sodipodi="http://sodipodi.sourceforge.net/DTD/sodipodi-0.dtd"
   xmlns="http://www.w3.org/2000/svg"
   xmlns:svg="http://www.w3.org/2000/svg"><defs
   id="defs65" /><sodipodi:namedview
   id="namedview63"
   pagecolor="#ffffff"
   bordercolor="#666666"
   borderopacity="1.0"
   inkscape:showpageshadow="2"
   inkscape:pageopacity="0.0"
   inkscape:pagecheckerboard="0"
   inkscape:deskcolor="#d1d1d1"
   showgrid="false"
   inkscape:zoom="0.7396"
   inkscape:cx="1553.5425"
   inkscape:cy="751.75771"
   inkscape:window-width="3840"
   inkscape:window-height="1531"
   inkscape:window-x="0"
   inkscape:window-y="0"
   inkscape:window-maximized="1"
   inkscape:current-layer="g486" />
<style
   type="text/css"
   id="style2">
	.st0{fill:#FFFFFF;}
	.st1{opacity:0.2;fill:#FFFFFF;}
	.st2{opacity:0.4;fill:#FFFFFF;}
	.st3{opacity:0.6;fill:#FFFFFF;}
</style>
<g
   inkscape:groupmode="layer"
   id="layer1"
   inkscape:label="Layer 1"
   transform="translate(-1554.5724,-366.06041)"><g
     id="g486"
     transform="translate(-20,58)"><polygon
       class="st0"
       points="1144.12,410.06 1144.12,828.4 1492.07,627.52 1492.07,209.17 1129.78,0 781.83,200.89 "
       id="polygon44"
       style="fill:#000000"
       transform="translate(1575.3423,308.37315)"
       inkscape:label="polygon44" /><polygon
       class="st1"
       points="738.9,1078.88 362.29,861.44 362.29,426.59 0,635.76 0,1070.62 376.6,1288.06 738.9,1078.89 "
       id="polygon46"
       style="opacity:1;fill:#000000"
       transform="translate(1575.3423,308.37315)"
       inkscape:label="polygon46" /><polygon
       class="st2"
       points="405.22,418.32 738.86,610.96 738.86,225.7 "
       id="polygon48"
       style="opacity:1;fill:#000000"
       transform="translate(1575.3423,308.37315)" /><polygon
       class="st2"
       points="1101.16,853.21 767.52,660.58 767.52,1045.84 "
       id="polygon50"
       style="opacity:1;fill:#000000"
       transform="translate(1575.3423,308.37315)" /><polygon
       class="st0"
       points="1115.5,426.58 767.48,225.66 767.48,627.52 1115.5,828.44 "
       id="polygon52"
       style="fill:#000000;opacity:1"
       transform="translate(1575.3423,308.37315)" /><polygon
       class="st3"
       points="738.9,1045.84 738.9,644.02 390.91,443.11 390.91,844.93 "
       id="polygon58"
       style="opacity:1;fill:#000000"
       transform="translate(1575.3423,308.37315)" /></g></g>









</svg>
